<svg xmlns="http://www.w3.org/2000/svg" width="132" height="35" fill="none"><path fill="#394149" d="M30.52 12.25c.36 0 .48.13.48.48v7.92h4.07c.35 0 .48.13.48.48v.7c0 .35-.13.48-.48.48h-5.36c-.35 0-.49-.13-.49-.48v-9.1c0-.35.14-.48.49-.48h.81zm8.58 3.49c0-2.31 1.46-3.7 4-3.7s4 1.39 4 3.7v3.08c0 2.31-1.47 3.7-4 3.7-2.53 0-4-1.39-4-3.7v-3.08zm6.32 0c0-1.3-.81-2-2.27-2s-2.26.71-2.26 2v3.1c0 1.31.8 2 2.26 2 1.46 0 2.27-.72 2.27-2v-3.1zm13.59 1.06c.39 0 .48.13.48.48v1.9a3 3 0 0 1-1.06 2.36 4.36 4.36 0 0 1-3 .94c-2.59 0-4-1.39-4-3.7v-3.1c0-2.28 1.46-3.68 4-3.68 2 0 3.3.79 3.85 2.37a.43.43 0 0 1-.3.62l-.78.27c-.34.12-.48.05-.6-.3a2.06 2.06 0 0 0-2.17-1.3c-1.47 0-2.27.71-2.27 2v3.18c0 1.31.81 2 2.27 2s2.36-.67 2.36-1.65v-.74h-2.17c-.36 0-.49-.14-.49-.49v-.68c0-.35.13-.48.49-.48h3.39zm4.61-1.06c0-2.31 1.46-3.7 4-3.7s4 1.39 4 3.7v3.08c0 2.31-1.47 3.7-4 3.7-2.53 0-4-1.39-4-3.7v-3.08zm6.31 0c0-1.3-.81-2-2.26-2-1.45 0-2.27.71-2.27 2v3.1c0 1.31.81 2 2.27 2s2.26-.72 2.26-2v-3.1zm6.4-3.2c0-.22.07-.29.29-.29h.46c.22 0 .27.07.27.29v9.48c0 .22 0 .29-.27.29h-.46c-.22 0-.29-.07-.29-.29v-9.48zm10.13-.29a3.14 3.14 0 1 1 0 6.28h-3v3.49c0 .22-.05.29-.26.29h-.47c-.21 0-.29-.07-.29-.29v-9.48c0-.22.08-.29.29-.29h3.73zm-.09 5.29a2.181 2.181 0 0 0 0-4.36h-3v4.36h3zm11.04-5.49a3.61 3.61 0 0 1 3.72 2.18c.08.16 0 .29-.16.37l-.44.2c-.18.07-.25.06-.36-.13a2.72 2.72 0 0 0-2.76-1.64c-1.69 0-2.61.67-2.61 1.87a1.52 1.52 0 0 0 1.27 1.54 6.79 6.79 0 0 0 1.66.32 6.878 6.878 0 0 1 2 .41 2.25 2.25 0 0 1 1.56 2.37c0 1.87-1.36 3-3.86 3a3.61 3.61 0 0 1-3.83-2.43.27.27 0 0 1 .17-.38l.44-.16a.27.27 0 0 1 .36.17 2.86 2.86 0 0 0 2.86 1.8c1.89 0 2.82-.66 2.82-2a1.486 1.486 0 0 0-1.17-1.53 7.003 7.003 0 0 0-1.59-.28l-1.08-.14a9.494 9.494 0 0 1-1-.27 2.629 2.629 0 0 1-.89-.47 2.44 2.44 0 0 1-.8-1.91c.07-1.75 1.38-2.89 3.69-2.89zm9.27 6.84a2.777 2.777 0 0 0 2.775 2.613 2.781 2.781 0 0 0 2.775-2.613v-6.35c0-.22.07-.29.29-.29h.46c.22 0 .29.07.29.29v6.34c0 2.27-1.34 3.64-3.81 3.64-2.47 0-3.81-1.37-3.81-3.64v-6.34c0-.22.07-.29.28-.29h.47c.21 0 .28.07.28.29v6.35zm20.39-6.64c.22 0 .29.07.29.29v9.48c0 .22-.07.29-.29.29h-.42c-.21 0-.28-.07-.28-.29v-5.77c0-.84.057-1.678.17-2.51h-.06c-.312.76-.677 1.5-1.09 2.21l-2.15 3.79a.348.348 0 0 1-.33.22h-.28a.372.372 0 0 1-.34-.22l-2.18-3.83a16.14 16.14 0 0 1-1-2.18h-.06c.102.84.156 1.684.16 2.53v5.76c0 .22-.07.29-.29.29h-.39c-.22 0-.29-.07-.29-.29v-9.48c0-.22.07-.29.29-.29h.36a.398.398 0 0 1 .4.23l3.5 6.22 3.48-6.16c.11-.21.17-.24.39-.24l.41-.05zM12.73 20.79v7.23a1.045 1.045 0 1 1-2.09 0V20.8c.291.212.64.331 1 .34a1.72 1.72 0 0 0 1.09-.35zm8.9-2.09a1 1 0 0 0-1 1v1.26a1.045 1.045 0 1 0 2.09 0v-1.21a1 1 0 0 0-1.09-1.05zM8.37 23.53a1.8 1.8 0 0 1-1-.34v7.25a1.05 1.05 0 1 0 2.1 0v-7.2a1.83 1.83 0 0 1-1.1.29zm10-7a1 1 0 0 0-1.05 1v5.57a1.05 1.05 0 1 0 2.1 0v-5.5a.999.999 0 0 0-1.1-1.05l.05-.02zm-3.32 2.14a1.83 1.83 0 0 1-1.05-.34v7.27a1.05 1.05 0 1 0 2.1 0v-7.26a1.77 1.77 0 0 1-1.1.35l.05-.02zM6.1 24.24V3.93A.94.94 0 0 0 5.16 3h-.22a.94.94 0 0 0-.94.93v20.31a.94.94 0 0 0 .94.94h.22a.94.94 0 0 0 .94-.94zm2.38-1.48h-.22a.94.94 0 0 1-.94-.94V6.35a.94.94 0 0 1 .94-.93h.22a.94.94 0 0 1 .94.93v15.49a.94.94 0 0 1-.94.94v-.02zm3.31-2.38h-.23a.93.93 0 0 1-.93-.93V8.75a.931.931 0 0 1 .93-.94h.23a.94.94 0 0 1 .93.94v10.7a.93.93 0 0 1-.93.93zm3.31-2.45h-.21a.94.94 0 0 1-.94-.93v-5.76a.94.94 0 0 1 .94-1h.22a.94.94 0 0 1 .94.94v5.8a.94.94 0 0 1-.94.95h-.01zm3.32-2.15h-.22a.94.94 0 0 1-.94-.94v-1.49a.94.94 0 0 1 .94-.93h.22a.94.94 0 0 1 .94.93v1.49a.94.94 0 0 1-.93.94h-.01z" class="ccustom"/></svg>